<svg id="Ebene_1" data-name="Ebene 1" xmlns="http://www.w3.org/2000/svg" viewBox="0 0 1688.02 320.88"><title>Sartorius_Logo_RGB_-01</title><path d="M1491.51,194.75c0,42.13-20,73.95-64.3,73.95s-64.29-32.67-64.29-73.95V21.47h-40.58V194.7c0,56.67,35.44,110.13,104.87,110.13,67.83,0,104.19-53.46,104.19-110.13V183.34h-39.89Zm-265,104.44h40.58V21.46h-40.58ZM858.92,21.87h-6.56V57.24h6.56c57.79,0,103.38,46.22,103.38,105.7,0,59.89-45.59,106.11-103.38,106.11S755.46,222.83,755.46,162.94h-37.7c0,79.18,62.46,141.48,141.16,141.48S1000,242.12,1000,162.94C1000,84.16,937.62,21.87,858.92,21.87ZM1621.66,146c-19.71-8.86-43.39-13.35-60.64-20.59-18.89-8.06-25.8-19-25.8-37.11,0-21.74,18.07-38.25,45.58-38.25,36.14,0,53,17.72,53.8,43.49h36.54c1.23-40.27-27.92-77.72-90.34-77.72-51.33,0-85.48,31.82-85.48,72.08v0c0,34.16,15.94,53.61,41.4,67.3,19.71,10.47,40.38,12.89,59.68,20.13,28.22,10.44,36.78,24.83,36.78,45.21,0,27.91-19.18,45.73-50.81,45.73h-4v33h2.4c56.17,0,91.79-35.08,91.79-78.92C1672.57,191.55,1658.57,162.47,1621.66,146Zm-442.06-36.9c0-50.24-36.07-87.61-88.13-87.61h-82.4l0,36.59h81.1c26.23,0,51.65,20.5,51.65,51,0,29.35-23.37,51.45-52.88,51.45h-42.79v36.58l32.24-.32,53.92,102.41H1177l-58.26-107.1C1149.21,182.81,1179.6,151.29,1179.6,109.06ZM797.42,21.47H592.34V58H641.6V299.2h40.16V58H797.42Zm-504.63,0L186.63,299.2H226L313.7,69.29,404.29,299.2h42.22L334.6,21.47ZM25.14,87.84h0v0Zm29.25,125V198H16.26v14.82c-1.23,45,29,86.44,97.44,86.44h2.46V265.53H113.7C77.21,265.53,54.39,242.21,54.39,212.86Zm97.43-66.35c-19.68-8.84-44.68-13.67-61.9-20.91-18.86-8-24.6-19.29-24.6-37.39,0-21.71,18-38.19,45.51-38.19,36.07,0,52.88,17.69,53.7,43.42H201c1.23-40.21-27.87-77.6-90.19-77.6-51.25,0-85.68,31.76-85.69,72,0,32.16,13.13,53.87,40.18,67.53,19.68,10,41,12.87,60.27,20.1,20.5,7.64,28.29,14.08,31.15,25.34h41.41C192.41,177.07,176.42,157.8,151.82,146.51Zm423.11-37.45c0-50.24-36.07-87.61-88.13-87.61H402.87V58H485.5c26.23,0,51.64,20.5,51.64,51,0,29.35-23.36,51.45-52.87,51.45H440v36.58l33.77-.32,53.92,102.41h44.68l-58.23-107.1C544.54,182.81,574.93,151.29,574.93,109.06Z"/></svg>